<mxfile host="app.diagrams.net" modified="2023-07-18T21:42:11.240Z" agent="Mozilla/5.0 (Windows NT 10.0; Win64; x64) AppleWebKit/537.36 (KHTML, like Gecko) Chrome/114.0.0.0 Safari/537.36" version="21.6.3" etag="oE3O2eZXhsL9-goaxUa1" type="github">
  <diagram name="PÃ¡gina-1" id="D2MypTmrPllCJhtkEauQ">
    <mxGraphModel>
      <root>
        <mxCell id="0" />
        <mxCell id="1" parent="0" />
      </root>
    </mxGraphModel>
  </diagram>
</mxfile>
